<svg xmlns="http://www.w3.org/2000/svg" xmlns:xlink="http://www.w3.org/1999/xlink" version="1.1" id="Layer_1" x="0px" y="0px" width="100%" viewBox="0 0 2020 1130" enable-background="new 0 0 2027 1147" xml:space="preserve">

<path fill="#E95A0F" opacity="1.000000" stroke="none" d=" M398.166504,621.992065   C396.779205,601.630432 394.074890,581.253174 394.315094,560.910767   C394.670319,530.826233 401.188171,501.771454 415.567841,474.934540   C426.055267,455.361847 439.657959,438.112854 456.230133,423.419586   C472.624207,408.884247 490.568146,396.373474 510.566223,387.237335   C525.789856,380.282440 541.572327,374.628052 558.395630,373.069702   C570.204163,371.975952 582.148621,370.555481 593.919800,371.233795   C616.952454,372.561035 639.050720,378.488617 660.174805,387.983887   C676.414795,395.283752 691.672119,404.148651 705.826294,414.952454   C718.823792,424.873352 730.238403,436.322693 739.984375,449.461060   C751.717163,465.277863 760.833130,482.498535 765.971252,501.478882   C769.439026,514.289001 772.408936,527.407227 773.750305,540.576233   C775.472351,557.483948 775.392395,574.578918 775.985107,591.596802   C776.411987,603.850281 776.208679,616.143372 777.101807,628.359131   C778.778320,651.288940 781.163818,674.123291 788.901855,696.059570   C794.277527,711.298767 801.401306,725.609314 809.748169,739.740845   C803.476807,746.849548 797.434143,753.425964 791.466064,760.069275   C789.930054,761.778992 788.671204,763.734314 787.212524,765.517456   C780.785889,773.373535 774.332764,781.207886 767.889160,789.050110   C754.029724,783.601379 740.443115,777.247498 726.232422,772.964111   C712.609985,768.858032 698.439880,766.199158 684.327454,764.188904   C669.071350,762.015686 653.626343,760.713623 638.222351,760.139465   C614.651184,759.260925 591.044373,759.083008 567.453247,759.110840   C556.594849,759.123657 545.730164,760.227295 534.883301,761.036743   C529.521179,761.436890 524.193054,762.292053 518.418823,762.513672   C515.660522,754.839172 513.134338,747.648926 511.051941,740.332336   C507.943878,729.411926 506.726471,717.778687 497.891541,709.237122   C495.293762,706.725586 492.822968,703.896179 491.008881,700.794434   C484.643341,689.910339 478.529053,678.877380 472.437958,667.835510   C468.260315,660.262268 464.027039,653.460327 455.421509,649.276428   C445.081085,644.248840 435.883392,636.889160 426.110413,630.665649   C422.937256,628.644958 419.696777,626.353455 416.157928,625.368408   C410.301270,623.738281 404.177643,623.067261 398.166504,621.992065  z"/>
        <path fill="#ED6D7B" opacity="1.000000" stroke="none" d=" M1478.998413,758.842041   C1466.973389,758.884460 1454.948242,758.926819 1442.460938,758.468689   C1442.321167,749.933167 1442.691895,741.899475 1442.913574,733.861633   C1442.946167,732.682617 1442.598877,730.875305 1441.832153,730.461731   C1441.027222,730.027344 1439.456421,730.799316 1438.314575,731.271729   C1437.458862,731.625671 1436.752319,732.340271 1434.725952,733.792725   C1434.486572,730.484863 1434.061523,728.206726 1434.206665,725.965576   C1434.694946,718.421631 1436.418701,710.799194 1435.760498,703.376160   C1434.744873,691.924805 1437.157349,688.784058 1423.428589,688.957275   C1419.635376,689.005066 1419.811157,686.154480 1420.096436,683.626038   C1420.595825,679.203857 1421.546875,674.823059 1421.866089,670.393005   C1422.177124,666.076904 1421.933716,661.720886 1421.933716,657.532288   C1419.379883,657.067932 1417.607422,656.672180 1415.813965,656.434143   C1411.399170,655.848206 1409.762573,654.183350 1410.748535,649.124207   C1411.972168,642.845398 1411.596802,636.262146 1412.024536,629.817871   C1412.214478,626.957642 1411.053101,625.344971 1408.230591,625.065308   C1404.117920,624.657837 1399.988647,624.007874 1395.879028,624.089844   C1391.216309,624.182800 1390.687500,621.818176 1391.127930,618.078247   C1391.861328,611.849182 1392.379761,605.594910 1393.003174,599.352722   C1393.324585,596.135681 1393.677246,592.921814 1394.104980,588.857849   C1388.199707,588.548401 1382.958618,588.052917 1377.719971,588.079407   C1374.399536,588.096130 1372.545654,586.679260 1372.153687,583.679382   C1370.982056,574.711426 1369.674438,565.734924 1369.152710,556.719360   C1368.893188,552.235779 1367.217163,551.014221 1363.148071,550.944885   C1353.864258,550.786682 1344.584717,550.350647 1335.304932,549.991882   C1328.063599,549.712097 1325.167603,547.227478 1324.004517,540.092407   C1323.258667,535.515930 1321.289429,532.291504 1316.227173,531.885193   C1308.487793,531.264038 1300.716064,530.893433 1293.020264,529.923828   C1285.693115,529.000488 1278.433716,527.508728 1271.167114,526.146851   C1266.146240,525.205872 1261.163696,524.060547 1256.163940,523.006592   C1260.679321,500.055023 1269.286133,478.624786 1282.447876,459.419708   C1300.501831,433.075836 1323.886841,412.180695 1351.550293,396.125580   C1367.397217,386.928497 1384.091187,379.848969 1401.926636,375.526337   C1418.581299,371.489868 1435.543457,369.811493 1452.548462,371.140839   C1485.882324,373.746613 1516.384766,385.096222 1544.963013,402.290955   C1560.827026,411.835938 1575.203857,423.150787 1587.231567,437.048676   C1595.344482,446.423004 1602.432373,456.828796 1608.949707,467.407196   C1619.721313,484.891113 1625.795654,504.328857 1629.560669,524.398621   C1631.343506,533.902100 1632.375732,543.612488 1632.878418,553.274353   C1633.636841,567.852478 1633.633789,582.470215 1633.528320,597.585815   C1616.054688,604.579956 1598.954468,610.924988 1581.983643,617.599304   C1574.204712,620.658691 1566.136230,622.974915 1560.230469,629.964722   C1555.500366,635.563049 1549.572021,640.280457 1543.683594,644.739014   C1533.783203,652.235046 1525.246460,660.726562 1518.600098,671.369873   C1515.267578,676.706482 1510.699585,681.750549 1505.600830,685.407593   C1494.245850,693.551575 1488.203979,704.380737 1485.986084,717.830872   C1483.729736,731.513306 1481.333496,745.172607 1478.998413,758.842041  z"/>
        <path fill="#EC663E" opacity="1.000000" stroke="none" d=" M318.110046,923.046631   C317.407593,940.739990 317.278015,958.479736 315.854675,976.114929   C314.155548,997.167053 309.562103,1017.626587 301.061249,1037.187256   C292.060516,1057.898071 279.369110,1075.880005 262.564972,1090.770020   C246.488281,1105.015381 227.963409,1114.932983 207.231491,1121.208008   C185.540375,1127.773315 163.417068,1129.335449 141.218842,1127.740112   C118.447563,1126.103882 97.338882,1118.422485 78.478714,1105.034912   C58.255898,1090.680054 42.936226,1072.117798 30.404142,1050.938599   C20.816397,1034.735229 14.300457,1017.388306 11.203185,998.923706   C8.864264,984.980164 8.895837,970.913147 10.800537,956.741699   C13.427437,937.197083 19.821955,919.042725 28.763983,901.674805   C40.381084,879.111084 56.081081,859.857849 77.146355,845.556824   C92.965515,834.817261 110.598183,827.877380 129.590439,825.101807   C138.360809,823.820068 147.285965,823.456055 156.158051,823.046692   C167.913025,822.504272 179.692200,822.484985 191.446777,821.936523   C199.991547,821.537842 208.513306,820.645874 217.640198,820.261841   C218.989014,822.031555 219.880264,823.460388 220.475143,825.003479   C225.202179,837.264832 231.050171,848.868530 239.111008,859.361633   C246.857681,869.445984 253.940689,880.045227 261.810425,890.027893   C265.729706,894.999451 270.180420,899.987915 275.419281,903.380371   C283.130432,908.373901 291.656921,912.172668 300.035950,916.048523   C305.887512,918.755432 312.073425,920.739624 318.110046,923.046631  z"/>
        <path fill="#EA580E" opacity="1.000000" stroke="none" d=" M1285.166626,162.994598   C1288.962769,133.244873 1298.991211,106.153427 1317.906250,82.417160   C1334.245728,61.912636 1353.918823,45.914833 1377.601807,34.803043   C1392.267944,27.921803 1407.572998,23.133656 1423.809937,22.054499   C1433.878296,21.385326 1444.049072,20.472395 1454.064453,21.191271   C1470.664185,22.382746 1486.710449,26.602840 1501.964233,33.464581   C1521.354248,42.187054 1538.404419,54.235794 1552.546509,70.119278   C1567.827271,87.281441 1577.859985,107.297997 1584.036621,129.405075   C1589.441162,148.748169 1590.346802,168.565796 1588.742065,188.230545   C1586.371826,217.275955 1576.906128,244.153793 1558.291382,267.115540   C1547.780518,280.080933 1535.808350,291.601257 1521.110596,300.764862   C1515.838623,295.152100 1511.102783,289.616852 1506.571777,283.918793   C1500.911133,276.800507 1495.613647,269.385864 1489.791870,262.405579   C1485.223267,256.927948 1480.243652,251.766922 1475.167603,246.747253   C1471.578979,243.198364 1467.757080,239.783829 1463.616943,236.919830   C1458.579102,233.434784 1453.051514,230.665924 1447.818848,227.452026   C1439.360107,222.256531 1430.808105,217.783508 1420.830688,215.553848   C1408.657227,212.833420 1395.992798,210.975204 1385.208984,203.719711   C1383.772461,202.753143 1381.776001,202.527359 1379.995850,202.177628   C1367.124756,199.649094 1354.542114,196.538315 1343.027832,189.706879   C1337.817627,186.615616 1331.463379,185.511978 1326.017090,182.741714   C1321.209229,180.296249 1317.242432,176.136780 1312.370972,173.890747   C1303.511475,169.806076 1294.256592,166.579346 1285.166626,162.994598  z"/>
        <path fill="#F8AB00" opacity="1.000000" stroke="none" d=" M524.962524,311.120178   C515.501587,305.435852 505.449280,300.528564 496.719299,293.883942   C483.841919,284.082581 472.688721,272.305878 464.008514,258.472229   C452.736267,240.507690 444.403625,221.324799 442.106659,200.068848   C440.815216,188.117706 439.673065,175.996323 440.237122,164.035263   C441.060120,146.582916 445.146057,129.672028 451.817657,113.331848   C460.638123,91.728447 474.068085,73.539764 491.385468,58.266716   C509.407043,42.372646 530.546997,32.196877 553.736816,25.934980   C572.957214,20.744925 592.579285,19.758474 612.107239,21.260557   C635.910217,23.091473 657.666748,31.923914 677.169373,45.756828   C694.362793,57.951870 708.857483,72.842949 720.063782,91.378830   C708.660522,99.674377 697.431213,107.495575 685.972229,114.964478   C668.878357,126.106102 651.710205,137.070740 637.935791,152.492386   C629.139404,162.340668 620.734680,172.738525 610.804321,181.329407   C593.945312,195.914307 583.059814,215.130615 569.750732,232.348480   C557.885986,247.697800 549.087769,265.464996 539.396484,282.428040   C534.093018,291.710938 529.742676,301.538300 524.962524,311.120178  z"/>
        <path fill="#EA5227" opacity="1.000000" stroke="none" d=" M1060.109741,1122.049438   C1052.732788,1123.698364 1045.427124,1126.142334 1037.962402,1126.812134   C1026.443726,1127.845581 1014.796387,1128.252808 1003.239136,1127.866211   C983.895691,1127.218994 965.237488,1123.165894 947.399780,1115.216187   C932.321960,1108.496582 918.793823,1099.745605 906.828430,1088.380005   C882.814941,1065.570312 864.775085,1039.163330 857.310181,1006.443542   C855.864319,1000.106262 855.352234,993.485107 855.075500,986.966614   C854.484253,973.040833 854.856445,959.057983 853.838928,945.171387   C852.922974,932.670959 850.679077,920.267761 849.430603,907.366577   C850.986023,905.985474 852.564636,905.292358 853.208252,904.096130   C857.937683,895.305725 865.349304,888.937073 872.291748,882.065979   C878.170471,876.247559 882.979553,869.305908 889.087646,863.772827   C896.081116,857.437683 900.948059,850.176575 903.451294,841.161133   C906.232239,831.145020 909.140686,821.164307 911.993591,811.168213   C920.008362,812.953613 927.977722,814.989441 936.050659,816.454285   C944.195679,817.932190 952.421509,819.044373 960.652405,819.947205   C969.105652,820.874512 977.607971,821.354736 986.543457,822.556580   C987.662476,838.646667 988.112732,854.223938 989.063965,869.770508   C989.739746,880.815125 990.459778,891.924988 992.297485,902.813782   C994.715820,917.142456 998.005981,931.340881 1001.372192,945.488037   C1004.871094,960.193359 1005.400330,975.416931 1011.787292,989.675659   C1021.943848,1012.349731 1030.077393,1035.925415 1040.068115,1058.680054   C1047.242798,1075.020996 1052.559448,1091.652954 1055.146484,1109.294678   C1055.791626,1113.694214 1058.402466,1117.805664 1060.109741,1122.049438  z"/>
        <path fill="#EA5330" opacity="1.000000" stroke="none" d=" M1060.511719,1122.031494   C1058.402466,1117.805664 1055.791626,1113.694214 1055.146484,1109.294678   C1052.559448,1091.652954 1047.242798,1075.020996 1040.068115,1058.680054   C1030.077393,1035.925415 1021.943848,1012.349731 1011.787292,989.675659   C1005.400330,975.416931 1004.871094,960.193359 1001.372192,945.488037   C998.005981,931.340881 994.715820,917.142456 992.297485,902.813782   C990.459778,891.924988 989.739746,880.815125 989.063965,869.770508   C988.112732,854.223938 987.662476,838.646667 986.996399,822.625000   C995.564026,822.444946 1004.142456,823.112488 1012.700500,822.911011   C1026.519287,822.585815 1040.324585,821.688599 1054.568115,821.511230   C1055.475464,825.256836 1055.812622,828.551392 1056.448975,831.786987   C1059.252075,846.038452 1061.981445,860.308044 1065.100098,874.491394   C1066.003540,878.599792 1067.434570,882.913086 1069.795898,886.320129   C1076.960815,896.658142 1084.604614,906.671082 1092.251953,916.665100   C1096.469604,922.176819 1100.542847,927.969482 1105.612671,932.620300   C1114.253784,940.547363 1123.678101,947.615540 1132.683350,955.152222   C1144.694580,965.204651 1157.135254,974.454712 1172.834473,978.006348   C1171.178711,989.108154 1170.443115,1000.446655 1167.662720,1011.259277   C1162.870239,1029.896118 1155.282349,1047.468262 1144.250610,1063.475464   C1131.197754,1082.415283 1115.164185,1098.137085 1094.623169,1108.530273   C1083.866455,1113.972900 1072.180176,1117.578369 1060.511719,1122.031494  z"/>
        <path fill="#F8AA05" opacity="1.000000" stroke="none" d=" M1989.106445,883.950684   C1994.304810,892.745178 2000.566650,901.098389 2004.443359,910.441284   C2009.767944,923.274170 2014.187378,936.648315 2017.316528,950.178589   C2020.266846,962.935669 2020.540527,976.086792 2019.303833,989.397583   C2017.912476,1004.370911 2014.660889,1018.666016 2008.955200,1032.431519   C2003.180420,1046.363525 1995.477783,1059.138916 1985.806152,1070.836792   C1971.664673,1087.940308 1954.591064,1101.294434 1934.998779,1111.324463   C1920.637817,1118.676392 1905.424805,1124.121704 1889.258057,1125.918213   C1878.961548,1127.062134 1868.525635,1128.279297 1858.227051,1127.812622   C1833.952515,1126.712280 1810.979492,1120.367798 1790.095337,1107.549805   C1783.999634,1103.808472 1778.170532,1099.632812 1772.364136,1095.207764   C1777.683105,1089.628784 1782.724854,1084.355957 1788.057861,1079.396362   C1800.337402,1067.976318 1812.754639,1056.704224 1825.129517,1045.387085   C1826.104492,1044.495483 1827.242310,1043.780884 1828.209351,1042.881836   C1835.145142,1036.433960 1842.973877,1030.681641 1848.762207,1023.326050   C1857.642456,1012.041138 1868.826050,1003.687195 1879.906006,995.033936   C1884.212402,991.670959 1888.965698,988.680542 1892.579224,984.675537   C1898.447632,978.171387 1903.411499,970.861328 1909.001709,964.093506   C1915.827637,955.829773 1922.728638,947.612732 1929.944946,939.692444   C1934.009521,935.231262 1938.939575,931.571533 1943.193604,927.267944   C1957.996094,912.292908 1971.963501,896.442993 1989.106445,883.950684  z"/>
        <path fill="#ED6876" opacity="1.000000" stroke="none" d=" M1256.099121,523.418579   C1261.163696,524.060547 1266.146240,525.205872 1271.167114,526.146851   C1278.433716,527.508728 1285.693115,529.000488 1293.020264,529.923828   C1300.716064,530.893433 1308.487793,531.264038 1316.227173,531.885193   C1321.289429,532.291504 1323.258667,535.515930 1324.004517,540.092407   C1325.167603,547.227478 1328.063599,549.712097 1335.304932,549.991882   C1344.584717,550.350647 1353.864258,550.786682 1363.148071,550.944885   C1367.217163,551.014221 1368.893188,552.235779 1369.152710,556.719360   C1369.674438,565.734924 1370.982056,574.711426 1372.153687,583.679382   C1372.545654,586.679260 1374.399536,588.096130 1377.719971,588.079407   C1382.958618,588.052917 1388.199707,588.548401 1394.104980,588.857849   C1393.677246,592.921814 1393.324585,596.135681 1393.003174,599.352722   C1392.379761,605.594910 1391.861328,611.849182 1391.127930,618.078247   C1390.687500,621.818176 1391.216309,624.182800 1395.879028,624.089844   C1399.988647,624.007874 1404.117920,624.657837 1408.230591,625.065308   C1411.053101,625.344971 1412.214478,626.957642 1412.024536,629.817871   C1411.596802,636.262146 1411.972168,642.845398 1410.748535,649.124207   C1409.762573,654.183350 1411.399170,655.848206 1415.813965,656.434143   C1417.607422,656.672180 1419.379883,657.067932 1421.933716,657.532288   C1421.933716,661.720886 1422.177124,666.076904 1421.866089,670.393005   C1421.546875,674.823059 1420.595825,679.203857 1420.096436,683.626038   C1419.811157,686.154480 1419.635376,689.005066 1423.428589,688.957275   C1437.157349,688.784058 1434.744873,691.924805 1435.760498,703.376160   C1436.418701,710.799194 1434.694946,718.421631 1434.206665,725.965576   C1434.061523,728.206726 1434.486572,730.484863 1434.725952,733.792725   C1436.752319,732.340271 1437.458862,731.625671 1438.314575,731.271729   C1439.456421,730.799316 1441.027222,730.027344 1441.832153,730.461731   C1442.598877,730.875305 1442.946167,732.682617 1442.913574,733.861633   C1442.691895,741.899475 1442.321167,749.933167 1441.996338,758.400269   C1430.781128,759.220520 1419.546631,759.298950 1408.360474,760.074097   C1393.832764,761.080811 1379.343384,762.641785 1364.408447,763.510010   C1363.322754,760.499878 1362.089722,757.938660 1362.112793,755.388733   C1362.196777,746.091431 1357.644775,738.805542 1353.021606,731.272400   C1349.150024,724.963989 1344.257812,718.220215 1343.542969,711.285156   C1342.471802,700.893188 1337.826782,695.349487 1328.654297,692.306519   C1327.556885,691.942444 1326.493896,691.462158 1325.440796,690.979370   C1317.963013,687.551086 1309.892334,685.061157 1306.381958,676.244080   C1305.478271,673.973999 1302.725342,672.469482 1300.921265,670.521301   C1298.483887,667.889282 1296.306274,664.995911 1293.713989,662.533813   C1291.066162,660.018738 1288.361816,657.187561 1285.124512,655.756836   C1280.325684,653.635925 1275.050659,652.571533 1269.949707,651.161194   C1264.705933,649.711426 1259.427979,648.386169 1254.164795,647.006409   C1254.439209,634.110413 1255.886597,621.105713 1254.704590,608.344604   C1253.057617,590.562012 1251.247803,572.818909 1252.150757,554.992188   C1252.678833,544.566162 1254.690063,534.215332 1256.099121,523.418579  z"/>
        <path fill="#F6A200" opacity="1.000000" stroke="none" d=" M525.145874,311.436432   C529.742676,301.538300 534.093018,291.710938 539.396484,282.428040   C549.087769,265.464996 557.885986,247.697800 569.750732,232.348480   C583.059814,215.130615 593.945312,195.914307 610.804321,181.329407   C620.734680,172.738525 629.139404,162.340668 637.935791,152.492386   C651.710205,137.070740 668.878357,126.106102 685.972229,114.964478   C697.431213,107.495575 708.660522,99.674377 720.215088,91.678955   C731.920349,108.422607 739.931519,127.102882 742.749207,147.396133   C744.979858,163.462036 744.984741,179.836990 745.502319,196.539154   C740.746765,198.159637 736.218201,198.773163 732.243591,200.595154   C725.813171,203.542892 720.050537,208.108032 713.469604,210.537003   C693.606873,217.868164 679.663635,232.886230 665.543762,247.320679   C657.683533,255.356094 652.032349,265.595886 645.657288,275.025848   C641.223572,281.584015 636.312744,288.062469 633.299683,295.279816   C629.051025,305.456757 626.360168,316.284088 623.003296,326.833313   C610.673523,326.886353 598.262695,327.860779 586.032349,326.784668   C565.773376,325.002167 545.804993,321.217285 527.277649,312.094574   C526.709717,311.814941 525.982300,311.859375 525.145874,311.436432  z"/>
        <path fill="#F7A80D" opacity="1.000000" stroke="none" d=" M1989.056641,883.597839   C1971.963501,896.442993 1957.996094,912.292908 1943.193604,927.267944   C1938.939575,931.571533 1934.009521,935.231262 1929.944946,939.692444   C1922.728638,947.612732 1915.827637,955.829773 1909.001709,964.093506   C1903.411499,970.861328 1898.447632,978.171387 1892.579224,984.675537   C1888.965698,988.680542 1884.212402,991.670959 1879.906006,995.033936   C1868.826050,1003.687195 1857.642456,1012.041138 1848.762207,1023.326050   C1842.973877,1030.681641 1835.145142,1036.433960 1828.209351,1042.881836   C1827.242310,1043.780884 1826.104492,1044.495483 1825.129517,1045.387085   C1812.754639,1056.704224 1800.337402,1067.976318 1788.057861,1079.396362   C1782.724854,1084.355957 1777.683105,1089.628784 1772.198975,1094.901611   C1750.798340,1077.683838 1734.737793,1056.462158 1723.575806,1031.310059   C1727.079102,1029.528931 1730.693237,1028.706055 1733.398315,1026.673218   C1742.094360,1020.137512 1753.790405,1018.267212 1760.694824,1008.959167   C1761.627808,1007.701599 1763.340820,1006.986450 1764.759399,1006.130737   C1782.637207,995.346436 1801.097534,985.402405 1818.200806,973.506409   C1828.505249,966.339111 1836.837402,956.276184 1845.784058,947.245178   C1849.603027,943.390015 1853.219604,939.154236 1856.083984,934.564575   C1868.366577,914.885071 1880.514160,895.118896 1896.465820,878.093689   C1908.690308,865.046631 1913.724243,848.569580 1919.004395,832.166992   C1934.854248,836.360168 1948.823364,844.296143 1961.636719,854.246765   C1972.220215,862.465881 1981.419189,872.129395 1989.056641,883.597839  z"/>
        <path fill="#EF7A72" opacity="1.000000" stroke="none" d=" M1479.461426,758.906860   C1481.333496,745.172607 1483.729736,731.513306 1485.986084,717.830872   C1488.203979,704.380737 1494.245850,693.551575 1505.600830,685.407593   C1510.699585,681.750549 1515.267578,676.706482 1518.600098,671.369873   C1525.246460,660.726562 1533.783203,652.235046 1543.683594,644.739014   C1549.572021,640.280457 1555.500366,635.563049 1560.230469,629.964722   C1566.136230,622.974915 1574.204712,620.658691 1581.983643,617.599304   C1598.954468,610.924988 1616.054688,604.579956 1633.463867,598.050415   C1634.216797,609.898865 1634.122192,621.837708 1635.105103,633.687195   C1636.876221,655.039734 1639.179932,676.359619 1646.853516,696.642151   C1647.023315,697.090820 1646.960205,697.627502 1646.834717,698.799866   C1639.889893,702.933411 1632.969238,706.136719 1626.397583,709.942505   C1622.462280,712.221558 1618.645630,715.038025 1615.528809,718.326843   C1609.518066,724.669373 1604.465942,731.950989 1598.242554,738.054077   C1589.146118,746.974487 1585.451172,758.738098 1580.062012,769.640625   C1579.859619,770.050110 1579.990479,770.624329 1579.966064,771.121826   C1571.477661,769.402283 1563.029419,767.439697 1554.490234,766.027588   C1544.801636,764.425415 1535.064697,762.943176 1525.289429,762.078796   C1510.194214,760.744019 1495.048706,759.978577 1479.461426,758.906860  z"/>
        <path fill="#E94E3B" opacity="1.000000" stroke="none" d=" M957.995239,766.838318   C937.658691,761.370972 919.204224,751.891174 902.292480,739.584473   C894.092468,733.617371 886.841003,726.346741 879.334045,719.214111   C882.302673,715.710388 884.897949,712.442139 887.932007,709.650818   C895.016907,703.132874 899.214600,694.736511 903.731873,686.497864   C908.664734,677.501587 914.076416,668.754944 918.697876,659.605713   C921.340088,654.374817 924.245056,648.595520 924.389038,642.995117   C924.508667,638.344482 924.583008,634.063477 926.966370,630.253296   C935.486633,616.631897 942.449402,602.226990 945.741150,586.549683   C947.851135,576.500732 953.629089,567.775452 953.551025,556.724365   C953.486816,547.635742 957.841919,538.509460 960.281067,529.411316   C963.493469,517.428284 967.650391,505.613922 969.773132,493.443115   C972.975037,475.085144 974.906128,456.497986 977.118896,437.977386   C978.940063,422.734009 980.385681,407.445801 981.997681,392.177460   C988.690613,392.464966 995.383484,392.752472 1002.537476,393.542114   C1002.667603,396.999786 1002.127747,399.949249 1002.041260,402.911957   C1001.626831,417.109894 1001.637756,431.327026 1000.905212,445.506775   C1000.308472,457.059082 998.838257,468.565002 997.820801,480.097260   C996.512939,494.920837 995.339722,509.756592 993.976135,524.574890   C993.037292,534.776978 992.197510,545.006470 990.693420,555.131592   C989.733276,561.595093 986.233215,567.777832 989.557617,574.514587   C989.905762,575.220154 989.131531,576.408813 989.109619,577.378601   C988.885620,587.296448 983.119507,596.807007 986.913330,607.024902   C987.016724,607.303406 986.880127,607.682373 986.820923,608.008240   C984.021301,623.413025 981.301880,638.833130 978.374756,654.213684   C977.143677,660.682434 975.439087,667.060120 974.010742,673.492676   C972.510437,680.249756 971.408386,687.113647 969.554749,693.769958   C965.953857,706.700378 958.897461,719.069458 963.927673,733.239807   C964.295227,734.275330 964.162048,735.591309 963.944702,736.715576   C962.002014,746.764404 959.988159,756.799316 957.995239,766.838318  z"/>
        <path fill="#EA5043" opacity="1.000000" stroke="none" d=" M958.342957,767.017456   C959.988159,756.799316 962.002014,746.764404 963.944702,736.715576   C964.162048,735.591309 964.295227,734.275330 963.927673,733.239807   C958.897461,719.069458 965.953857,706.700378 969.554749,693.769958   C971.408386,687.113647 972.510437,680.249756 974.010742,673.492676   C975.439087,667.060120 977.143677,660.682434 978.374756,654.213684   C981.301880,638.833130 984.021301,623.413025 986.820923,608.008240   C986.880127,607.682373 987.016724,607.303406 986.913330,607.024902   C983.119507,596.807007 988.885620,587.296448 989.109619,577.378601   C989.131531,576.408813 989.905762,575.220154 989.557617,574.514587   C986.233215,567.777832 989.733276,561.595093 990.693420,555.131592   C992.197510,545.006470 993.037292,534.776978 993.976135,524.574890   C995.339722,509.756592 996.512939,494.920837 997.820801,480.097260   C998.838257,468.565002 1000.308472,457.059082 1000.905212,445.506775   C1001.637756,431.327026 1001.626831,417.109894 1002.041260,402.911957   C1002.127747,399.949249 1002.667603,396.999786 1002.997192,393.610596   C1008.353394,393.130310 1013.710754,393.083618 1019.532898,393.529999   C1021.756836,408.627991 1021.387573,423.263947 1021.157959,437.937958   C1021.000488,448.001617 1022.597229,458.080048 1022.926270,468.167633   C1023.260071,478.402222 1022.891418,488.657806 1023.042603,498.901031   C1023.126953,504.614166 1023.831116,510.318573 1023.903259,516.031372   C1023.957458,520.320557 1023.434204,524.616089 1023.201111,528.910583   C1023.129272,530.233093 1023.063599,531.569763 1023.170166,532.885803   C1024.090698,544.259033 1025.051392,555.629028 1025.704224,567.291260   C1024.938965,579.583069 1024.481323,591.584167 1023.997192,603.584106   C1023.342224,619.814026 1022.454468,636.038391 1022.089661,652.274597   C1021.907532,660.377747 1023.082336,668.511353 1022.900269,676.614563   C1022.628906,688.690247 1021.625610,700.748047 1021.113586,712.821106   C1021.011169,715.234863 1021.013062,718.104004 1022.173340,720.040161   C1026.500122,727.260132 1026.636719,735.254883 1026.909424,743.143311   C1027.274048,753.696106 1026.996948,764.270996 1026.995361,774.836426   C1015.555237,777.438660 1004.154907,775.524292 992.889404,773.920471   C981.403503,772.285278 970.083374,769.486084 958.342957,767.017456  z"/>
        <path fill="#EB5D19" opacity="1.000000" stroke="none" d=" M398.091309,622.450012   C404.177643,623.067261 410.301270,623.738281 416.157928,625.368408   C419.696777,626.353455 422.937256,628.644958 426.110413,630.665649   C435.883392,636.889160 445.081085,644.248840 455.421509,649.276428   C464.027039,653.460327 468.260315,660.262268 472.437958,667.835510   C478.529053,678.877380 484.643341,689.910339 491.008881,700.794434   C492.822968,703.896179 495.293762,706.725586 497.891541,709.237122   C506.726471,717.778687 507.943878,729.411926 511.051941,740.332336   C513.134338,747.648926 515.660522,754.839172 517.998047,762.459717   C488.525879,765.480530 459.028778,768.041382 430.413757,777.681641   C429.228607,775.379700 428.618408,773.319763 427.644653,771.449036   C423.246918,762.999939 420.942078,753.274658 412.702484,747.149597   C410.191772,745.283264 407.599854,743.335510 405.655212,740.931396   C397.297333,730.599060 388.627441,720.655823 376.882874,713.958313   C381.306244,702.480469 386.182373,691.152039 390.033783,679.485352   C394.440155,666.137451 396.758270,652.304932 397.031433,638.172180   C397.129852,633.079651 397.674866,627.995789 398.091309,622.450012  z"/>
        <path fill="#E94C32" opacity="1.000000" stroke="none" d=" M981.557373,392.108582   C980.385681,407.445801 978.940063,422.734009 977.118896,437.977386   C974.906128,456.497986 972.975037,475.085144 969.773132,493.443115   C967.650391,505.613922 963.493469,517.428284 960.281067,529.411316   C957.841919,538.509460 953.486816,547.635742 953.551025,556.724365   C953.629089,567.775452 947.851135,576.500732 945.741150,586.549683   C942.449402,602.226990 935.486633,616.631897 926.966370,630.253296   C924.583008,634.063477 924.508667,638.344482 924.389038,642.995117   C924.245056,648.595520 921.340088,654.374817 918.697876,659.605713   C914.076416,668.754944 908.664734,677.501587 903.731873,686.497864   C899.214600,694.736511 895.016907,703.132874 887.932007,709.650818   C884.897949,712.442139 882.302673,715.710388 879.197083,718.905945   C867.000000,708.311035 858.125854,695.261719 849.895813,681.665649   C842.287720,669.096985 836.613708,655.703430 832.258667,641.295227   C845.561523,634.406372 858.131287,627.417297 867.569946,615.979858   C868.287048,615.110962 869.503967,614.667358 870.280273,613.832458   C875.305542,608.427551 880.794983,603.351746 885.133911,597.435791   C891.275391,589.062195 895.995117,579.623108 902.340271,571.427307   C910.560425,560.809631 915.997375,548.783997 922.364380,536.961304   C926.812622,536.335449 929.093628,533.751343 930.478333,530.070923   C931.932861,526.205017 933.122070,522.175842 935.087097,518.578430   C939.484314,510.528595 944.727661,502.919067 948.795532,494.718109   C952.149414,487.956818 954.306213,480.602081 956.998291,473.512146   C962.725037,458.429718 964.275452,442.264069 969.519226,426.934113   C973.223022,416.106171 972.657288,403.817810 973.997620,392.181427   C976.370789,392.134186 978.743958,392.086975 981.557373,392.108582  z"/>
        <path fill="#F7A617" opacity="1.000000" stroke="none" d=" M1918.661499,831.989929   C1913.724243,848.569580 1908.690308,865.046631 1896.465820,878.093689   C1880.514160,895.118896 1868.366577,914.885071 1856.083984,934.564575   C1853.219604,939.154236 1849.603027,943.390015 1845.784058,947.245178   C1836.837402,956.276184 1828.505249,966.339111 1818.200806,973.506409   C1801.097534,985.402405 1782.637207,995.346436 1764.759399,1006.130737   C1763.340820,1006.986450 1761.627808,1007.701599 1760.694824,1008.959167   C1753.790405,1018.267212 1742.094360,1020.137512 1733.398315,1026.673218   C1730.693237,1028.706055 1727.079102,1029.528931 1723.524048,1030.954712   C1720.111450,1021.133301 1716.608032,1011.372192 1714.164062,1001.352783   C1712.631348,995.068542 1712.690552,988.395996 1712.499023,981.439453   C1714.411621,980.659119 1715.872803,980.381958 1717.308594,980.008118   C1733.130371,975.887146 1748.799927,971.979553 1761.127075,959.685608   C1770.578735,950.259460 1781.498169,942.313904 1791.660645,933.588501   C1797.806152,928.311890 1804.684692,923.536011 1809.614624,917.262634   C1824.426147,898.414795 1838.490723,878.977722 1852.726196,859.681458   C1855.350098,856.124756 1858.232666,852.416992 1859.555908,848.314514   C1862.236572,840.003418 1863.931152,831.374390 1866.032227,822.876526   C1883.922607,823.155273 1901.364746,826.055420 1918.661499,831.989929  z"/>
        <path fill="#EA553A" opacity="1.000000" stroke="none" d=" M1172.909912,977.581848   C1157.135254,974.454712 1144.694580,965.204651 1132.683350,955.152222   C1123.678101,947.615540 1114.253784,940.547363 1105.612671,932.620300   C1100.542847,927.969482 1096.469604,922.176819 1092.251953,916.665100   C1084.604614,906.671082 1076.960815,896.658142 1069.795898,886.320129   C1067.434570,882.913086 1066.003540,878.599792 1065.100098,874.491394   C1061.981445,860.308044 1059.252075,846.038452 1056.448975,831.786987   C1055.812622,828.551392 1055.475464,825.256836 1054.996582,821.578186   C1070.230225,819.388000 1085.467529,817.609070 1101.405029,815.956055   C1104.096802,821.660706 1106.287476,827.177979 1108.035278,832.832092   C1110.935059,842.213379 1115.811401,850.026306 1123.070679,856.880737   C1130.126587,863.543152 1136.375610,871.192139 1142.216675,878.979553   C1151.725342,891.656860 1165.227051,898.040710 1179.123291,904.033936   C1178.075562,911.475159 1176.697998,918.888123 1176.057373,926.364258   C1175.101074,937.526489 1174.664673,948.733215 1174.005737,959.920959   C1173.667236,965.666504 1173.325439,971.411865 1172.909912,977.581848  z"/>
        <path fill="#EA5453" opacity="1.000000" stroke="none" d=" M1163.122925,704.035522   C1159.118408,709.151794 1155.437500,714.566406 1151.048218,719.328125   C1138.205933,733.260742 1123.395020,744.775452 1106.145752,753.865845   C1102.980225,748.157959 1100.490112,742.578979 1097.956299,736.615112   C1094.634888,723.758179 1091.697754,711.184021 1087.993286,698.840149   C1083.393311,683.511414 1077.392944,668.652344 1076.644287,652.278015   C1076.330078,645.406860 1075.369263,637.991272 1069.530518,632.634033   C1068.483154,631.673096 1068.238037,629.580750 1068.065796,627.963562   C1066.649292,614.660095 1065.377930,601.341187 1063.973633,588.036377   C1063.419922,582.790955 1063.590332,577.207397 1061.763184,572.413574   C1058.141113,562.911072 1057.217285,553.160095 1057.075439,543.250549   C1056.987915,537.139648 1058.142944,530.994446 1057.857300,524.906067   C1057.187134,510.625061 1056.096924,496.360107 1054.957397,482.106171   C1054.300049,473.883698 1053.006714,465.710907 1052.393311,457.486389   C1051.935547,451.348969 1052.108154,445.164551 1052.289551,439.276428   C1053.248779,445.107208 1053.365112,450.801636 1054.718384,456.185181   C1056.725830,464.171234 1059.943359,471.849152 1062.042847,479.817108   C1065.265259,492.047180 1063.590332,505.036346 1068.770996,517.171814   C1073.082153,527.270752 1075.159790,538.307434 1078.503296,548.840881   C1080.731689,555.860657 1084.669922,562.562744 1085.624023,569.703430   C1086.743164,578.078979 1091.723633,583.677185 1096.000000,590.419067   C1096.677734,594.223267 1097.395386,597.601074 1098.025513,600.995056   C1099.736938,610.211121 1101.174927,619.278259 1106.519653,627.593750   C1112.912476,637.539856 1117.868042,648.408813 1123.462158,658.869629   C1127.483032,666.388733 1129.661011,674.944702 1136.386841,680.934631   C1144.619385,688.266357 1152.671753,695.799927 1160.849121,703.194275   C1161.405518,703.697510 1162.355835,703.765259 1163.122925,704.035522  z"/>
        <path fill="#EA5B15" opacity="1.000000" stroke="none" d=" M1285.092041,163.431656   C1294.256592,166.579346 1303.511475,169.806076 1312.370972,173.890747   C1317.242432,176.136780 1321.209229,180.296249 1326.017090,182.741714   C1331.463379,185.511978 1337.817627,186.615616 1343.027832,189.706879   C1354.542114,196.538315 1367.124756,199.649094 1379.995850,202.177628   C1381.776001,202.527359 1383.772461,202.753143 1385.208984,203.719711   C1395.992798,210.975204 1408.657227,212.833420 1420.830688,215.553848   C1430.808105,217.783508 1439.360107,222.256531 1447.818848,227.452026   C1453.051514,230.665924 1458.579102,233.434784 1463.616943,236.919830   C1467.757080,239.783829 1471.578979,243.198364 1475.167603,246.747253   C1480.243652,251.766922 1485.223267,256.927948 1489.791870,262.405579   C1495.613647,269.385864 1500.911133,276.800507 1506.571777,283.918793   C1511.102783,289.616852 1515.838623,295.152100 1520.794067,300.905762   C1510.789185,306.711304 1500.723877,312.909790 1490.074585,317.849213   C1482.380981,321.417725 1473.911377,323.312927 1465.386963,325.518555   C1462.509155,318.430481 1460.034790,311.777344 1457.554199,305.126465   C1456.752075,302.976105 1456.310059,300.576630 1455.056519,298.730072   C1450.508301,292.030060 1445.344116,285.730621 1441.045288,278.882751   C1434.373535,268.255310 1425.704956,259.952820 1414.981812,253.507050   C1405.624756,247.882462 1396.615112,241.682907 1387.338257,235.920502   C1380.902710,231.923019 1374.436035,227.914474 1367.679199,224.515396   C1362.556152,221.938248 1356.571777,220.979675 1351.633545,218.145782   C1334.446777,208.282898 1316.503052,200.259171 1297.602539,194.378494   C1293.199219,193.008469 1288.649048,192.111160 1284.166260,190.996338   C1284.450073,181.953812 1284.733887,172.911270 1285.092041,163.431656  z"/>
        <path fill="#EA504B" opacity="1.000000" stroke="none" d=" M1098.000000,737.000000   C1100.490112,742.578979 1102.980225,748.157959 1105.788940,753.893188   C1090.749146,763.164978 1074.110229,768.897583 1056.604736,771.888611   C1047.140869,773.505737 1037.482544,773.985535 1027.453613,774.907349   C1026.996948,764.270996 1027.274048,753.696106 1026.909424,743.143311   C1026.636719,735.254883 1026.500122,727.260132 1022.173340,720.040161   C1021.013062,718.104004 1021.011169,715.234863 1021.113586,712.821106   C1021.625610,700.748047 1022.628906,688.690247 1022.900269,676.614563   C1023.082336,668.511353 1021.907532,660.377747 1022.089661,652.274597   C1022.454468,636.038391 1023.342224,619.814026 1023.997192,603.584106   C1024.481323,591.584167 1024.938965,579.583069 1025.977051,567.514648   C1031.547119,577.704895 1036.608887,587.934570 1041.504883,598.242859   C1042.626831,600.604980 1044.092285,603.332581 1043.843750,605.730713   C1042.307373,620.549805 1049.724731,632.569763 1056.805664,644.060974   C1066.813599,660.302429 1073.222778,677.601074 1077.136963,696.024902   C1079.421997,706.780701 1081.865479,717.418762 1089.094482,726.190002   C1092.063721,729.792664 1095.031494,733.396667 1098.000000,737.000000  z"/>
        <path fill="#F6A320" opacity="1.000000" stroke="none" d=" M1865.780396,822.528687   C1863.931152,831.374390 1862.236572,840.003418 1859.555908,848.314514   C1858.232666,852.416992 1855.350098,856.124756 1852.726196,859.681458   C1838.490723,878.977722 1824.426147,898.414795 1809.614624,917.262634   C1804.684692,923.536011 1797.806152,928.311890 1791.660645,933.588501   C1781.498169,942.313904 1770.578735,950.259460 1761.127075,959.685608   C1748.799927,971.979553 1733.130371,975.887146 1717.308594,980.008118   C1715.872803,980.381958 1714.411621,980.659119 1712.564697,980.994019   C1711.458008,963.962280 1710.748901,946.917786 1710.485596,929.437805   C1711.750488,928.902649 1712.668701,929.009766 1713.374023,928.672058   C1723.969727,923.600159 1734.174072,917.613403 1745.959595,915.399170   C1747.649292,915.081787 1749.266235,913.841248 1750.691406,912.736938   C1759.703247,905.753418 1768.705933,898.755859 1777.599487,891.622925   C1782.591187,887.619568 1788.813477,884.229675 1791.980591,879.037903   C1803.266357,860.537598 1814.343750,841.775024 1819.007812,820.167847   C1831.022705,820.776917 1843.036499,821.411316 1855.053345,821.979248   C1858.540405,822.144043 1862.036621,822.118896 1865.780396,822.528687  z"/>
        <path fill="#EC6333" opacity="1.000000" stroke="none" d=" M318.447906,922.813538   C312.073425,920.739624 305.887512,918.755432 300.035950,916.048523   C291.656921,912.172668 283.130432,908.373901 275.419281,903.380371   C270.180420,899.987915 265.729706,894.999451 261.810425,890.027893   C253.940689,880.045227 246.857681,869.445984 239.111008,859.361633   C231.050171,848.868530 225.202179,837.264832 220.475143,825.003479   C219.880264,823.460388 218.989014,822.031555 218.093338,820.220703   C224.932953,818.622559 231.890182,817.197205 238.900314,816.114441   C257.752441,813.202698 275.333099,806.621765 292.637329,798.295654   C293.333954,799.183289 293.526001,799.850647 293.929108,800.346436   C299.878906,807.664734 305.791809,815.014709 311.850433,822.242371   C315.990295,827.181030 319.910461,832.433472 324.712433,836.653992   C330.382812,841.638000 336.897675,845.661133 343.046448,850.100769   C334.109070,866.382751 326.624268,883.278809 322.350800,901.410767   C320.712646,908.361267 319.948303,915.517822 318.447906,922.813538  z"/>
        <path fill="#F49700" opacity="1.000000" stroke="none" d=" M623.467163,326.902588   C626.360168,316.284088 629.051025,305.456757 633.299683,295.279816   C636.312744,288.062469 641.223572,281.584015 645.657288,275.025848   C652.032349,265.595886 657.683533,255.356094 665.543762,247.320679   C679.663635,232.886230 693.606873,217.868164 713.469604,210.537003   C720.050537,208.108032 725.813171,203.542892 732.243591,200.595154   C736.218201,198.773163 740.746765,198.159637 745.430054,197.002960   C747.377014,215.559509 748.678406,234.152618 753.737061,252.689438   C738.284241,260.620911 724.883789,270.781586 713.276855,282.685089   C702.859741,293.368469 694.167358,305.796295 685.264038,317.860382   C682.026001,322.248108 680.376465,327.808228 678.002136,332.833435   C660.198792,328.846710 642.235413,326.335907 623.467163,326.902588  z"/>
        <path fill="#EA544C" opacity="1.000000" stroke="none" d=" M1097.956299,736.615112   C1095.031494,733.396667 1092.063721,729.792664 1089.094482,726.190002   C1081.865479,717.418762 1079.421997,706.780701 1077.136963,696.024902   C1073.222778,677.601074 1066.813599,660.302429 1056.805664,644.060974   C1049.724731,632.569763 1042.307373,620.549805 1043.843750,605.730713   C1044.092285,603.332581 1042.626831,600.604980 1041.504883,598.242859   C1036.608887,587.934570 1031.547119,577.704895 1026.272705,567.223389   C1025.051392,555.629028 1024.090698,544.259033 1023.170166,532.885803   C1023.063599,531.569763 1023.129272,530.233093 1023.201111,528.910583   C1023.434204,524.616089 1023.957458,520.320557 1023.903259,516.031372   C1023.831116,510.318573 1023.126953,504.614166 1023.042603,498.901031   C1022.891418,488.657806 1023.260071,478.402222 1022.926270,468.167633   C1022.597229,458.080048 1021.000488,448.001617 1021.157959,437.937958   C1021.387573,423.263947 1021.756836,408.627991 1019.995850,393.596802   C1029.365234,392.794128 1038.736450,392.417725 1048.553955,392.523254   C1050.000244,408.337128 1051.000122,423.669098 1052.000000,439.001068   C1052.108154,445.164551 1051.935547,451.348969 1052.393311,457.486389   C1053.006714,465.710907 1054.300049,473.883698 1054.957397,482.106171   C1056.096924,496.360107 1057.187134,510.625061 1057.857300,524.906067   C1058.142944,530.994446 1056.987915,537.139648 1057.075439,543.250549   C1057.217285,553.160095 1058.141113,562.911072 1061.763184,572.413574   C1063.590332,577.207397 1063.419922,582.790955 1063.973633,588.036377   C1065.377930,601.341187 1066.649292,614.660095 1068.065796,627.963562   C1068.238037,629.580750 1068.483154,631.673096 1069.530518,632.634033   C1075.369263,637.991272 1076.330078,645.406860 1076.644287,652.278015   C1077.392944,668.652344 1083.393311,683.511414 1087.993286,698.840149   C1091.697754,711.184021 1094.634888,723.758179 1097.956299,736.615112  z"/>
        <path fill="#EC5C61" opacity="1.000000" stroke="none" d=" M1204.834595,568.008057   C1206.088623,593.359253 1203.159180,618.167603 1194.666992,642.618347   C1186.069458,637.734924 1176.489624,633.908997 1170.313477,627.028015   C1162.873535,618.738953 1156.384155,609.585815 1148.638062,601.316650   C1140.139648,592.244324 1131.906982,582.388367 1127.553711,570.203247   C1127.013306,568.690552 1125.862915,567.395752 1124.959961,565.638794   C1120.354858,556.392151 1117.253662,547.095093 1117.000000,536.548584   C1116.165161,529.399231 1115.785645,522.604858 1114.391479,516.025452   C1112.176270,505.571594 1108.765259,495.529327 1107.290771,484.723114   C1104.777466,466.304504 1100.083740,448.211182 1101.943848,429.370941   C1102.183716,426.941437 1101.773438,424.421722 1101.466431,421.968628   C1100.014893,410.366608 1098.494629,398.773193 1096.998901,387.176697   C1099.722046,386.798157 1102.445190,386.419617 1105.584229,386.510010   C1107.333130,395.290955 1108.536255,403.626495 1110.032471,411.909088   C1111.845703,421.946442 1113.671997,431.993195 1115.966431,441.926483   C1117.002075,446.408966 1119.919678,450.499451 1120.696411,454.990356   C1122.490845,465.367554 1125.426270,475.243683 1129.968140,484.761719   C1132.881714,490.867188 1134.729370,497.473145 1137.464600,503.674011   C1140.329956,510.170166 1143.728149,516.429382 1146.814819,522.830139   C1150.578613,530.634949 1154.481445,537.843506 1162.915283,542.271484   C1170.442383,546.223328 1176.628662,552.647400 1183.898071,557.195129   C1190.534424,561.346863 1197.829712,564.445374 1204.834595,568.008057  z"/>
        <path fill="#ED676F" opacity="1.000000" stroke="none" d=" M1140.749512,379.231354   C1159.129028,374.373108 1176.971558,368.021179 1194.728760,360.260223   C1197.951172,363.628601 1200.421875,367.004120 1203.447754,369.772705   C1205.780762,371.907135 1208.898926,374.842529 1211.514526,374.695251   C1219.137451,374.266174 1223.877686,377.382996 1228.823975,382.910004   C1234.354492,389.090057 1241.567505,393.764435 1248.048340,399.094055   C1242.926880,406.286804 1237.587402,413.335541 1232.725830,420.699829   C1219.034546,441.439087 1209.735718,463.955109 1205.943970,488.626007   C1205.400513,492.162384 1204.663086,495.668915 1203.577881,499.551392   C1189.320190,493.132080 1177.166504,484.592438 1170.847046,469.748138   C1169.760254,467.195526 1168.250977,464.818146 1166.878540,462.392822   C1165.184692,459.399536 1163.309082,456.503052 1161.735352,453.449615   C1160.157104,450.387390 1158.812866,447.201111 1157.440796,444.036835   C1155.870728,440.416260 1153.935425,436.874146 1152.970825,433.090881   C1151.713867,428.160736 1152.334961,422.519073 1150.246094,418.078033   C1144.415527,405.681152 1142.779053,392.449585 1140.749512,379.231354  z"/>
        <path fill="#ED656E" opacity="1.000000" stroke="none" d=" M1254.102539,647.439453   C1259.427979,648.386169 1264.705933,649.711426 1269.949707,651.161194   C1275.050659,652.571533 1280.325684,653.635925 1285.124512,655.756836   C1288.361816,657.187561 1291.066162,660.018738 1293.713989,662.533813   C1296.306274,664.995911 1298.483887,667.889282 1300.921265,670.521301   C1302.725342,672.469482 1305.478271,673.973999 1306.381958,676.244080   C1309.892334,685.061157 1317.963013,687.551086 1325.440796,690.979370   C1326.493896,691.462158 1327.556885,691.942444 1328.654297,692.306519   C1337.826782,695.349487 1342.471802,700.893188 1343.542969,711.285156   C1344.257812,718.220215 1349.150024,724.963989 1353.021606,731.272400   C1357.644775,738.805542 1362.196777,746.091431 1362.112793,755.388733   C1362.089722,757.938660 1363.322754,760.499878 1363.986816,763.443970   C1344.125732,765.998657 1324.191528,767.739624 1304.389648,772.533875   C1300.270630,764.501953 1296.637451,756.862793 1292.794067,749.331116   C1291.686890,747.161682 1290.267822,744.978516 1288.486694,743.356140   C1281.137573,736.662170 1273.623779,730.147583 1266.113281,723.633057   C1260.399048,718.676758 1254.680176,713.718994 1248.800293,708.963806   C1246.024170,706.718872 1242.865601,704.947083 1239.880371,702.960938   C1243.788940,690.243286 1247.944336,677.593994 1251.489624,664.775940   C1252.997803,659.323425 1253.228760,653.517761 1254.102539,647.439453  z"/>
        <path fill="#EC6168" opacity="1.000000" stroke="none" d=" M1140.314697,379.222504   C1142.779053,392.449585 1144.415527,405.681152 1150.246094,418.078033   C1152.334961,422.519073 1151.713867,428.160736 1152.970825,433.090881   C1153.935425,436.874146 1155.870728,440.416260 1157.440796,444.036835   C1158.812866,447.201111 1160.157104,450.387390 1161.735352,453.449615   C1163.309082,456.503052 1165.184692,459.399536 1166.878540,462.392822   C1168.250977,464.818146 1169.760254,467.195526 1170.847046,469.748138   C1177.166504,484.592438 1189.320190,493.132080 1203.487549,499.959778   C1203.554932,505.081268 1202.986328,510.160309 1203.052368,515.231018   C1203.218384,527.939148 1203.619873,540.645203 1204.037354,553.348450   C1204.187988,557.934448 1204.653442,562.510193 1204.905029,567.549316   C1197.829712,564.445374 1190.534424,561.346863 1183.898071,557.195129   C1176.628662,552.647400 1170.442383,546.223328 1162.915283,542.271484   C1154.481445,537.843506 1150.578613,530.634949 1146.814819,522.830139   C1143.728149,516.429382 1140.329956,510.170166 1137.464600,503.674011   C1134.729370,497.473145 1132.881714,490.867188 1129.968140,484.761719   C1125.426270,475.243683 1122.490845,465.367554 1120.696411,454.990356   C1119.919678,450.499451 1117.002075,446.408966 1115.966431,441.926483   C1113.671997,431.993195 1111.845703,421.946442 1110.032471,411.909088   C1108.536255,403.626495 1107.333130,395.290955 1105.996338,386.573639   C1116.345825,384.112610 1126.700195,382.062531 1137.050415,379.991547   C1138.007202,379.800171 1138.937500,379.476135 1140.314697,379.222504  z"/>
        <path fill="#E94C28" opacity="1.000000" stroke="none" d=" M922.000000,536.999634   C915.997375,548.783997 910.560425,560.809631 902.340271,571.427307   C895.995117,579.623108 891.275391,589.062195 885.133911,597.435791   C880.794983,603.351746 875.305542,608.427551 870.280273,613.832458   C869.503967,614.667358 868.287048,615.110962 867.569946,615.979858   C858.131287,627.417297 845.561523,634.406372 832.213379,640.908813   C827.994385,630.023438 825.271606,618.754150 825.008484,607.003723   C824.642090,590.645142 824.343994,574.284973 824.494263,557.462158   C831.935120,554.568787 838.946655,552.264709 845.827881,549.621216   C847.576538,548.949463 848.928711,547.219910 850.432129,545.940063   C857.180908,540.194946 863.276978,533.312866 870.838867,528.996277   C878.558289,524.589905 885.230286,519.895142 889.579956,512.107605   C890.206360,510.986084 891.269226,510.030212 892.309265,509.230652   C899.506165,503.697937 904.892517,496.721008 909.215088,488.791992   C909.895081,487.544647 911.709900,486.915924 913.320068,486.141418   C916.155029,487.549347 918.587158,489.033875 921.204407,490.033752   C925.108459,491.525208 925.596313,493.955566 924.037903,497.472717   C922.567627,500.790649 921.369995,504.228271 919.968750,507.578278   C918.721802,510.559662 919.533264,512.820251 922.381836,514.122253   C925.186951,515.404358 925.507080,517.261780 924.194397,519.722839   C921.966064,523.900635 919.699158,528.057861 917.287415,532.521606   C918.739990,533.901855 920.369995,535.450745 922.000000,536.999634  z"/>
        <path fill="#EB5659" opacity="1.000000" stroke="none" d=" M1124.995117,566.000000   C1125.862915,567.395752 1127.013306,568.690552 1127.553711,570.203247   C1131.906982,582.388367 1140.139648,592.244324 1148.638062,601.316650   C1156.384155,609.585815 1162.873535,618.738953 1170.313477,627.028015   C1176.489624,633.908997 1186.069458,637.734924 1194.487793,642.960022   C1188.414673,665.276367 1177.813110,685.406250 1163.430176,703.896729   C1162.355835,703.765259 1161.405518,703.697510 1160.849121,703.194275   C1152.671753,695.799927 1144.619385,688.266357 1136.386841,680.934631   C1129.661011,674.944702 1127.483032,666.388733 1123.462158,658.869629   C1117.868042,648.408813 1112.912476,637.539856 1106.519653,627.593750   C1101.174927,619.278259 1099.736938,610.211121 1098.025513,600.995056   C1097.395386,597.601074 1096.677734,594.223267 1096.287476,590.147217   C1095.916626,583.834534 1095.258423,578.212769 1094.542114,572.094910   C1096.795776,573.531128 1098.838989,574.833191 1100.882324,576.135254   C1101.311646,575.910156 1101.740967,575.685059 1102.170410,575.459961   C1101.433960,570.171936 1100.697510,564.883911 1100.027832,560.074890   C1103.698608,560.543884 1106.590088,560.913330 1109.481567,561.282776   C1109.481567,558.332947 1109.481567,555.383057 1109.481567,552.737793   C1114.752075,557.243408 1119.873535,561.621704 1124.995117,566.000000  z"/>
        <path fill="#F5A02D" opacity="1.000000" stroke="none" d=" M1818.567871,820.095947   C1814.343750,841.775024 1803.266357,860.537598 1791.980591,879.037903   C1788.813477,884.229675 1782.591187,887.619568 1777.599487,891.622925   C1768.705933,898.755859 1759.703247,905.753418 1750.691406,912.736938   C1749.266235,913.841248 1747.649292,915.081787 1745.959595,915.399170   C1734.174072,917.613403 1723.969727,923.600159 1713.374023,928.672058   C1712.668701,929.009766 1711.750488,928.902649 1710.549561,929.005859   C1707.443970,914.954102 1704.720215,900.898804 1702.287842,886.298096   C1706.933350,884.158508 1711.641235,883.158691 1715.556641,880.827942   C1721.138428,877.505127 1726.874512,873.885986 1731.227905,869.176208   C1739.176514,860.576599 1745.651245,850.604675 1753.683594,842.095215   C1762.222656,833.049194 1767.550659,822.454529 1772.008667,811.173523   C1787.381714,814.123657 1802.754883,817.073792 1818.567871,820.095947  z"/>
        <path fill="#EB5A57" opacity="1.000000" stroke="none" d=" M1124.959961,565.638794   C1119.873535,561.621704 1114.752075,557.243408 1109.481567,552.737793   C1109.481567,555.383057 1109.481567,558.332947 1109.481567,561.282776   C1106.590088,560.913330 1103.698608,560.543884 1100.027832,560.074890   C1100.697510,564.883911 1101.433960,570.171936 1102.170410,575.459961   C1101.740967,575.685059 1101.311646,575.910156 1100.882324,576.135254   C1098.838989,574.833191 1096.795776,573.531128 1094.542114,572.094910   C1095.258423,578.212769 1095.916626,583.834534 1096.287476,589.728149   C1091.723633,583.677185 1086.743164,578.078979 1085.624023,569.703430   C1084.669922,562.562744 1080.731689,555.860657 1078.503296,548.840881   C1075.159790,538.307434 1073.082153,527.270752 1068.770996,517.171814   C1063.590332,505.036346 1065.265259,492.047180 1062.042847,479.817108   C1059.943359,471.849152 1056.725830,464.171234 1054.718384,456.185181   C1053.365112,450.801636 1053.248779,445.107208 1052.289551,439.276428   C1051.000122,423.669098 1050.000244,408.337128 1048.995605,392.587769   C1058.031006,391.459595 1067.071167,390.748810 1076.565430,390.503540   C1078.679688,402.881195 1080.212769,414.812927 1082.044067,426.698669   C1083.293945,434.810150 1084.876343,442.874084 1086.465942,450.928467   C1087.867798,458.031403 1089.457275,465.097931 1091.015747,472.169067   C1092.493774,478.874939 1091.288696,486.171295 1095.615479,492.256744   C1101.016724,499.853516 1102.791016,508.774567 1105.082642,517.593933   C1107.035400,525.108521 1110.886841,531.846863 1117.000000,537.000000   C1117.253662,547.095093 1120.354858,556.392151 1124.959961,565.638794  z"/>
        <path fill="#EA541C" opacity="1.000000" stroke="none" d=" M911.651245,810.999268   C909.140686,821.164307 906.232239,831.145020 903.451294,841.161133   C900.948059,850.176575 896.081116,857.437683 889.087646,863.772827   C882.979553,869.305908 878.170471,876.247559 872.291748,882.065979   C865.349304,888.937073 857.937683,895.305725 853.208252,904.096130   C852.564636,905.292358 850.986023,905.985474 849.503296,906.953003   C847.113403,899.032227 845.402100,890.962341 842.937500,883.129578   C837.486694,865.806274 830.533630,849.154053 819.523560,834.294495   C826.965149,827.033386 834.266235,820.317566 841.151001,813.199097   C844.333374,809.908752 846.682922,805.817444 849.446167,802.116272   C852.981262,797.381104 856.552917,792.673157 860.108765,787.953430   C869.636292,792.733582 879.033325,797.801575 888.734009,802.199951   C896.057678,805.520569 903.769714,807.984863 911.651245,810.999268  z"/>
        <path fill="#EB5D19" opacity="1.000000" stroke="none" d=" M1284.092041,191.421234   C1288.649048,192.111160 1293.199219,193.008469 1297.602539,194.378494   C1316.503052,200.259171 1334.446777,208.282898 1351.633545,218.145782   C1356.571777,220.979675 1362.556152,221.938248 1367.679199,224.515396   C1374.436035,227.914474 1380.902710,231.923019 1387.338257,235.920502   C1396.615112,241.682907 1405.624756,247.882462 1414.981812,253.507050   C1425.704956,259.952820 1434.373535,268.255310 1441.045288,278.882751   C1445.344116,285.730621 1450.508301,292.030060 1455.056519,298.730072   C1456.310059,300.576630 1456.752075,302.976105 1457.554199,305.126465   C1460.034790,311.777344 1462.509155,318.430481 1464.994873,325.458252   C1453.309937,327.212433 1441.616211,328.591156 1429.462280,329.495605   C1428.725098,327.402405 1428.467041,325.780029 1428.168091,324.165222   C1425.010742,307.108704 1414.119751,294.004395 1405.133667,280.019257   C1402.107056,275.309113 1397.347900,271.489777 1392.799561,268.026428   C1383.453735,260.909943 1373.795776,254.192047 1364.111450,247.535324   C1357.458618,242.962341 1350.800293,238.284424 1343.680542,234.533676   C1335.632690,230.293900 1327.201050,226.683670 1318.691650,223.442245   C1306.969604,218.977020 1295.018188,215.114151 1283.165039,210.993225   C1283.449341,204.610855 1283.733521,198.228500 1284.092041,191.421234  z"/>
        <path fill="#EB5E24" opacity="1.000000" stroke="none" d=" M1283.089966,211.415176   C1295.018188,215.114151 1306.969604,218.977020 1318.691650,223.442245   C1327.201050,226.683670 1335.632690,230.293900 1343.680542,234.533676   C1350.800293,238.284424 1357.458618,242.962341 1364.111450,247.535324   C1373.795776,254.192047 1383.453735,260.909943 1392.799561,268.026428   C1397.347900,271.489777 1402.107056,275.309113 1405.133667,280.019257   C1414.119751,294.004395 1425.010742,307.108704 1428.168091,324.165222   C1428.467041,325.780029 1428.725098,327.402405 1429.004395,329.427887   C1415.631226,329.211731 1402.255615,328.588928 1388.440430,327.504700   C1385.505737,317.824036 1383.843872,308.585114 1376.154053,301.352417   C1360.577393,286.701538 1345.753906,271.250244 1330.589844,256.159088   C1329.903442,255.476028 1328.964111,255.003052 1328.073730,254.575470   C1312.351196,247.024078 1296.618042,239.494934 1280.887085,231.960968   C1281.596436,225.253021 1282.305664,218.545074 1283.089966,211.415176  z"/>
        <path fill="#E9511F" opacity="1.000000" stroke="none" d=" M913.000000,486.001160   C911.709900,486.915924 909.895081,487.544647 909.215088,488.791992   C904.892517,496.721008 899.506165,503.697937 892.309265,509.230652   C891.269226,510.030212 890.206360,510.986084 889.579956,512.107605   C885.230286,519.895142 878.558289,524.589905 870.838867,528.996277   C863.276978,533.312866 857.180908,540.194946 850.432129,545.940063   C848.928711,547.219910 847.576538,548.949463 845.827881,549.621216   C838.946655,552.264709 831.935120,554.568787 824.566284,556.998413   C824.438599,545.846924 824.768188,534.696716 824.944214,523.544189   C824.974060,521.651733 824.344055,519.748779 824.487915,517.424072   C838.215149,515.669067 848.076111,507.896851 857.766113,499.761353   C860.549927,497.424164 863.840393,495.600677 866.295288,492.977234   C876.115417,482.482758 885.713928,471.780396 895.352600,461.117188   C896.897949,459.407623 898.770386,457.716339 899.573975,455.658234   C905.238953,441.149414 911.064331,426.681061 916.010437,411.922272   C918.827881,403.515076 920.084351,394.584656 922.043701,385.889832   C927.082825,386.603394 932.121887,387.316925 937.579285,388.519318   C936.670715,397.488007 935.269470,405.957062 934.032959,414.450043   C931.623352,431.000824 928.192505,447.288910 922.041992,462.910889   C919.013916,470.602112 916.013184,478.304077 913.000000,486.001160  z"/>
        <path fill="#EA5741" opacity="1.000000" stroke="none" d=" M1179.451294,903.828186   C1165.227051,898.040710 1151.725342,891.656860 1142.216675,878.979553   C1136.375610,871.192139 1130.126587,863.543152 1123.070679,856.880737   C1115.811401,850.026306 1110.935059,842.213379 1108.035278,832.832092   C1106.287476,827.177979 1104.096802,821.660706 1101.780884,815.799561   C1116.880249,811.790649 1131.994263,807.170776 1146.739258,800.266602   C1156.544556,812.551880 1165.910767,824.524780 1175.106689,836.627014   C1181.196777,844.641724 1188.230347,851.376770 1197.826538,855.001770   C1190.422363,869.473633 1184.227173,884.413696 1180.346069,900.245361   C1180.074951,901.350891 1179.964478,902.495850 1179.451294,903.828186  z"/>
        <path fill="#EA522A" opacity="1.000000" stroke="none" d=" M913.320068,486.141418   C916.013184,478.304077 919.013916,470.602112 922.041992,462.910889   C928.192505,447.288910 931.623352,431.000824 934.032959,414.450043   C935.269470,405.957062 936.670715,397.488007 937.995972,388.588745   C945.577881,388.905334 953.163574,389.620178 960.744141,390.385712   C964.915161,390.806885 969.077576,391.313385 973.620728,391.981415   C972.657288,403.817810 973.223022,416.106171 969.519226,426.934113   C964.275452,442.264069 962.725037,458.429718 956.998291,473.512146   C954.306213,480.602081 952.149414,487.956818 948.795532,494.718109   C944.727661,502.919067 939.484314,510.528595 935.087097,518.578430   C933.122070,522.175842 931.932861,526.205017 930.478333,530.070923   C929.093628,533.751343 926.812622,536.335449 922.364380,536.961304   C920.369995,535.450745 918.739990,533.901855 917.287415,532.521606   C919.699158,528.057861 921.966064,523.900635 924.194397,519.722839   C925.507080,517.261780 925.186951,515.404358 922.381836,514.122253   C919.533264,512.820251 918.721802,510.559662 919.968750,507.578278   C921.369995,504.228271 922.567627,500.790649 924.037903,497.472717   C925.596313,493.955566 925.108459,491.525208 921.204407,490.033752   C918.587158,489.033875 916.155029,487.549347 913.320068,486.141418  z"/>
        <path fill="#EB5E24" opacity="1.000000" stroke="none" d=" M376.574036,714.117737   C388.627441,720.655823 397.297333,730.599060 405.655212,740.931396   C407.599854,743.335510 410.191772,745.283264 412.702484,747.149597   C420.942078,753.274658 423.246918,762.999939 427.644653,771.449036   C428.618408,773.319763 429.228607,775.379700 430.020386,777.738770   C422.875214,781.457886 415.387878,784.239441 408.634857,788.255676   C399.028625,793.968811 389.961975,800.589233 380.210205,806.654541   C376.803345,802.924438 373.979492,799.245300 370.875183,795.820312   C360.600128,784.483704 350.223999,773.238647 339.886627,761.958496   C351.744720,750.365234 362.254150,737.678406 370.941589,723.527161   C372.802063,720.496582 374.495087,717.363220 376.574036,714.117737  z"/>
        <path fill="#E95514" opacity="1.000000" stroke="none" d=" M859.962036,787.635742   C856.552917,792.673157 852.981262,797.381104 849.446167,802.116272   C846.682922,805.817444 844.333374,809.908752 841.151001,813.199097   C834.266235,820.317566 826.965149,827.033386 819.500610,833.954224   C806.278503,816.277588 790.083130,802.243530 771.322815,791.075806   C770.354187,790.499329 769.255066,790.142212 768.052979,789.366577   C774.332764,781.207886 780.785889,773.373535 787.212524,765.517456   C788.671204,763.734314 789.930054,761.778992 791.466064,760.069275   C797.434143,753.425964 803.476807,746.849548 809.802490,740.100403   C814.711243,745.440186 819.421814,750.837952 823.883850,756.433838   C833.603699,768.623901 845.697205,777.999451 858.731140,786.301331   C859.141846,786.562866 859.456177,786.975769 859.962036,787.635742  z"/>
        <path fill="#EB5F2D" opacity="1.000000" stroke="none" d=" M339.581909,762.087708   C350.223999,773.238647 360.600128,784.483704 370.875183,795.820312   C373.979492,799.245300 376.803345,802.924438 379.899506,806.799133   C367.014343,818.417786 355.351227,830.938232 346.000763,845.503418   C345.128296,846.862427 344.440460,848.340027 343.356659,849.931641   C336.897675,845.661133 330.382812,841.638000 324.712433,836.653992   C319.910461,832.433472 315.990295,827.181030 311.850433,822.242371   C305.791809,815.014709 299.878906,807.664734 293.929108,800.346436   C293.526001,799.850647 293.333954,799.183289 293.003540,798.241821   C309.741577,787.737732 325.583160,776.371521 339.581909,762.087708  z"/>
        <path fill="#F28D00" opacity="1.000000" stroke="none" d=" M678.387817,332.911804   C680.376465,327.808228 682.026001,322.248108 685.264038,317.860382   C694.167358,305.796295 702.859741,293.368469 713.276855,282.685089   C724.883789,270.781586 738.284241,260.620911 753.783447,253.092789   C758.656250,264.728912 763.202698,276.504517 767.453125,288.684784   C761.694519,292.769226 755.936523,296.087616 750.858643,300.238068   C746.446106,303.844757 742.734985,308.329803 738.835693,312.539520   C733.489258,318.311676 728.015991,323.993439 723.054138,330.086090   C719.125305,334.910156 715.884460,340.294434 712.338074,345.429932   C701.149841,341.283356 689.961670,337.136780 678.387817,332.911804  z"/>
        <path fill="#F08369" opacity="1.000000" stroke="none" d=" M1580.181396,771.426941   C1579.990479,770.624329 1579.859619,770.050110 1580.062012,769.640625   C1585.451172,758.738098 1589.146118,746.974487 1598.242554,738.054077   C1604.465942,731.950989 1609.518066,724.669373 1615.528809,718.326843   C1618.645630,715.038025 1622.462280,712.221558 1626.397583,709.942505   C1632.969238,706.136719 1639.889893,702.933411 1646.858643,699.190125   C1648.631348,702.419861 1650.094604,705.992920 1651.809204,709.440979   C1655.852539,717.572083 1660.015503,725.643738 1664.042725,734.433899   C1662.675659,736.399719 1661.446533,737.727173 1660.108154,738.933289   C1652.263428,746.003723 1643.793335,752.497437 1636.701294,760.252869   C1629.730225,767.875916 1624.149170,776.770142 1617.958130,785.106506   C1605.437622,780.648376 1592.917114,776.190247 1580.181396,771.426941  z"/>
        <path fill="#F18B5E" opacity="1.000000" stroke="none" d=" M1618.142090,785.400269   C1624.149170,776.770142 1629.730225,767.875916 1636.701294,760.252869   C1643.793335,752.497437 1652.263428,746.003723 1660.108154,738.933289   C1661.446533,737.727173 1662.675659,736.399719 1664.104736,734.771362   C1673.853638,745.791748 1683.396118,757.218018 1693.101196,768.504456   C1694.997437,770.709534 1697.524902,772.371765 1699.760742,774.898376   C1693.290161,782.390320 1686.794067,789.243958 1680.357666,796.153320   C1674.189941,802.774170 1668.084106,809.452820 1661.950928,816.106079   C1648.993164,803.696655 1634.465576,793.539429 1618.142090,785.400269  z"/>
        <path fill="#F49C3A" opacity="1.000000" stroke="none" d=" M1771.616943,811.100464   C1767.550659,822.454529 1762.222656,833.049194 1753.683594,842.095215   C1745.651245,850.604675 1739.176514,860.576599 1731.227905,869.176208   C1726.874512,873.885986 1721.138428,877.505127 1715.556641,880.827942   C1711.641235,883.158691 1706.933350,884.158508 1702.238403,885.896851   C1697.940552,875.970093 1693.983765,865.899292 1690.137939,855.154053   C1694.879028,850.772949 1700.061768,847.572144 1704.020020,843.249878   C1711.365356,835.229065 1718.113647,826.646973 1724.884399,818.119019   C1729.781250,811.951111 1734.312622,805.493042 1739.007080,799.164368   C1749.746460,803.118713 1760.485962,807.073059 1771.616943,811.100464  z"/>
        <path fill="#F08000" opacity="1.000000" stroke="none" d=" M712.601257,345.675415   C715.884460,340.294434 719.125305,334.910156 723.054138,330.086090   C728.015991,323.993439 733.489258,318.311676 738.835693,312.539520   C742.734985,308.329803 746.446106,303.844757 750.858643,300.238068   C755.936523,296.087616 761.694519,292.769226 767.494873,289.047791   C775.482666,300.758331 783.132751,312.510529 790.781250,324.895874   C785.908508,331.129547 781.105225,336.790833 776.151245,342.316925   C767.803223,351.629028 759.359619,360.855469 750.956299,370.117920   C739.242920,360.503326 726.523499,352.472565 712.601257,345.675415  z"/>
        <path fill="#ED6E04" opacity="1.000000" stroke="none" d=" M751.110352,370.420166   C759.359619,360.855469 767.803223,351.629028 776.151245,342.316925   C781.105225,336.790833 785.908508,331.129547 790.916260,325.210999   C798.045105,331.437012 804.808044,338.251556 812.105408,344.435577   C817.494690,349.002655 823.580627,352.747711 829.635010,357.355103   C824.125061,365.217743 819.012756,373.273651 812.381409,379.781677   C803.500549,388.497375 793.443237,396.014343 783.891052,404.046082   C778.187622,397.458588 772.744873,390.619141 766.697693,384.364105   C761.940002,379.442963 756.436523,375.242859 751.110352,370.420166  z"/>
        <path fill="#EA541C" opacity="1.000000" stroke="none" d=" M921.823364,385.544312   C920.084351,394.584656 918.827881,403.515076 916.010437,411.922272   C911.064331,426.681061 905.238953,441.149414 899.573975,455.658234   C898.770386,457.716339 896.897949,459.407623 895.352600,461.117188   C885.713928,471.780396 876.115417,482.482758 866.295288,492.977234   C863.840393,495.600677 860.549927,497.424164 857.766113,499.761353   C848.076111,507.896851 838.215149,515.669067 824.557617,516.998657   C822.784180,507.270630 821.410156,497.541351 820.466309,487.398865   C832.799683,481.542694 844.706177,476.106506 856.596680,470.635834   C857.177307,470.368713 857.642944,469.824249 858.121399,469.366364   C866.154785,461.678345 874.379883,454.176575 882.132507,446.214783   C886.482178,441.747803 891.334045,437.070892 893.720703,431.525024   C900.358826,416.099701 908.767761,401.225830 910.994507,384.167175   C914.530701,384.511047 918.066833,384.854889 921.823364,385.544312  z"/>
        <path fill="#F3944D" opacity="1.000000" stroke="none" d=" M1738.687622,798.997681   C1734.312622,805.493042 1729.781250,811.951111 1724.884399,818.119019   C1718.113647,826.646973 1711.365356,835.229065 1704.020020,843.249878   C1700.061768,847.572144 1694.879028,850.772949 1690.095093,854.790161   C1682.059204,841.326050 1673.630127,827.945984 1662.096436,816.403320   C1668.084106,809.452820 1674.189941,802.774170 1680.357666,796.153320   C1686.794067,789.243958 1693.290161,782.390320 1699.904541,775.203491   C1712.821899,782.873352 1725.594971,790.852112 1738.687622,798.997681  z"/>
        <path fill="#EC6168" opacity="1.000000" stroke="none" d=" M1239.583252,703.142456   C1242.865601,704.947083 1246.024170,706.718872 1248.800293,708.963806   C1254.680176,713.718994 1260.399048,718.676758 1266.113281,723.633057   C1273.623779,730.147583 1281.137573,736.662170 1288.486694,743.356140   C1290.267822,744.978516 1291.686890,747.161682 1292.794067,749.331116   C1296.637451,756.862793 1300.270630,764.501953 1303.988281,772.466919   C1293.224731,777.136841 1282.456543,781.440063 1271.298096,785.448792   C1263.463257,776.127747 1256.033081,767.089233 1248.564819,758.082458   C1246.561890,755.666870 1244.468506,753.324280 1242.371216,750.989075   C1238.832275,747.048645 1235.444214,742.945557 1231.631226,739.287781   C1229.061157,736.822388 1225.869507,735.005005 1222.955811,732.897827   C1228.399292,723.039856 1233.842773,713.181885 1239.583252,703.142456  z"/>
        <path fill="#EC663E" opacity="1.000000" stroke="none" d=" M1351.006104,332.839355   C1341.505005,336.279388 1332.003174,339.717224 1322.506714,343.169739   C1322.212524,343.276703 1321.973877,343.536438 1321.313110,343.434204   C1310.246582,324.415863 1294.286987,310.874969 1277.088257,298.579620   C1272.820923,295.528961 1268.335327,292.783569 1263.950073,289.897827   C1266.971436,281.856628 1269.992798,273.815399 1273.454712,265.392578   C1283.509277,269.461578 1293.275269,273.619965 1302.665894,278.500397   C1306.663574,280.578033 1309.964844,284.065186 1313.419312,287.097900   C1316.496338,289.799377 1319.162109,292.989319 1322.345703,295.544769   C1326.461304,298.848419 1332.132446,300.889343 1334.965454,304.976715   C1341.048950,313.753754 1345.743164,323.493622 1351.006104,332.839355  z"/>
        <path fill="#EB5E5B" opacity="1.000000" stroke="none" d=" M1222.646606,733.051147   C1225.869507,735.005005 1229.061157,736.822388 1231.631226,739.287781   C1235.444214,742.945557 1238.832275,747.048645 1242.371216,750.989075   C1244.468506,753.324280 1246.561890,755.666870 1248.564819,758.082458   C1256.033081,767.089233 1263.463257,776.127747 1270.948364,785.491028   C1257.892334,792.327515 1245.638916,800.104004 1234.211914,809.652344   C1220.800903,794.640442 1207.845093,779.796570 1194.889160,764.952759   C1203.058105,755.674438 1211.237305,746.405212 1219.383057,737.106689   C1220.455444,735.882690 1221.356812,734.508850 1222.646606,733.051147  z"/>
        <path fill="#EA580E" opacity="1.000000" stroke="none" d=" M876.001160,376.171143   C881.875183,377.517944 887.749268,378.864746 893.813232,380.960144   C893.003113,386.225311 891.125977,390.751373 891.174683,395.256561   C891.298584,406.725922 886.716370,415.639313 878.444702,423.119659   C876.369629,424.996277 874.785339,427.406128 872.777100,429.367706   C865.226196,436.743256 857.601868,444.043854 849.969055,451.334839   C849.527344,451.756744 848.756714,451.822418 848.156250,452.091888   C840.449646,455.549988 832.743347,459.008636 825.043274,462.481293   C821.744019,463.969238 818.459534,465.489929 815.168213,466.995728   C812.863586,460.905426 810.558899,454.815125 808.554688,448.319397   C816.194519,443.482239 824.121826,439.779327 830.734436,434.446411   C840.431702,426.625824 849.665588,418.085388 858.177124,408.990936   C863.790405,402.993195 870.856445,397.659515 872.378540,388.515778   C873.077637,384.316254 874.763000,380.280914 876.001160,376.171143  z"/>
        <path fill="#E95514" opacity="1.000000" stroke="none" d=" M815.103149,467.384338   C818.459534,465.489929 821.744019,463.969238 825.043274,462.481293   C832.743347,459.008636 840.449646,455.549988 848.156250,452.091888   C848.756714,451.822418 849.527344,451.756744 849.969055,451.334839   C857.601868,444.043854 865.226196,436.743256 872.777100,429.367706   C874.785339,427.406128 876.369629,424.996277 878.444702,423.119659   C886.716370,415.639313 891.298584,406.725922 891.174683,395.256561   C891.125977,390.751373 893.003113,386.225311 894.021362,381.300720   C899.448730,381.859894 904.857849,382.827026 910.630737,383.980682   C908.767761,401.225830 900.358826,416.099701 893.720703,431.525024   C891.334045,437.070892 886.482178,441.747803 882.132507,446.214783   C874.379883,454.176575 866.154785,461.678345 858.121399,469.366364   C857.642944,469.824249 857.177307,470.368713 856.596680,470.635834   C844.706177,476.106506 832.799683,481.542694 820.527954,486.991089   C818.452271,480.588654 816.745117,474.180786 815.103149,467.384338  z"/>
        <path fill="#EB620B" opacity="1.000000" stroke="none" d=" M783.944336,404.402191   C793.443237,396.014343 803.500549,388.497375 812.381409,379.781677   C819.012756,373.273651 824.125061,365.217743 829.956177,357.508331   C839.227661,361.524384 848.456787,365.883270 857.848938,370.938385   C853.715393,378.008301 849.832336,384.716522 845.015808,390.669556   C839.230835,397.819641 832.907227,404.586792 826.349487,411.045319   C818.359863,418.914093 809.883911,426.289093 801.618347,433.877686   C795.744751,424.171234 789.871216,414.464783 783.944336,404.402191  z"/>
        <path fill="#EA544C" opacity="1.000000" stroke="none" d=" M1197.986328,854.686035   C1188.230347,851.376770 1181.196777,844.641724 1175.106689,836.627014   C1165.910767,824.524780 1156.544556,812.551880 1147.105591,800.209839   C1155.707031,794.271301 1164.453491,788.646973 1173.863770,783.134583   C1175.478271,784.160706 1176.502686,785.010498 1177.368530,785.999207   C1186.254761,796.147949 1195.012695,806.411743 1204.032959,816.439514   C1207.756226,820.578735 1212.027710,824.224792 1216.049927,828.095154   C1210.082031,836.853516 1204.114136,845.611877 1197.986328,854.686035  z"/>
        <path fill="#EC6333" opacity="1.000000" stroke="none" d=" M1351.410156,332.903076   C1345.743164,323.493622 1341.048950,313.753754 1334.965454,304.976715   C1332.132446,300.889343 1326.461304,298.848419 1322.345703,295.544769   C1319.162109,292.989319 1316.496338,289.799377 1313.419312,287.097900   C1309.964844,284.065186 1306.663574,280.578033 1302.665894,278.500397   C1293.275269,273.619965 1283.509277,269.461578 1273.527832,265.001556   C1274.707886,259.560303 1276.255249,254.128510 1278.337646,248.394257   C1290.255859,253.068039 1302.546265,256.655334 1312.802002,263.356567   C1327.040649,272.660156 1341.813354,281.809753 1352.397095,295.820160   C1354.783081,298.978790 1357.518555,301.896759 1360.281006,304.743042   C1366.845459,311.506714 1370.428955,319.670441 1372.004395,328.835907   C1365.274292,330.212891 1358.544189,331.589874 1351.410156,332.903076  z"/>
        <path fill="#EB5E5B" opacity="1.000000" stroke="none" d=" M1117.000000,536.548584   C1110.886841,531.846863 1107.035400,525.108521 1105.082642,517.593933   C1102.791016,508.774567 1101.016724,499.853516 1095.615479,492.256744   C1091.288696,486.171295 1092.493774,478.874939 1091.015747,472.169067   C1089.457275,465.097931 1087.867798,458.031403 1086.465942,450.928467   C1084.876343,442.874084 1083.293945,434.810150 1082.044067,426.698669   C1080.212769,414.812927 1078.679688,402.881195 1077.006836,390.569702   C1083.389038,389.139221 1089.783813,388.108063 1096.588867,387.126801   C1098.494629,398.773193 1100.014893,410.366608 1101.466431,421.968628   C1101.773438,424.421722 1102.183716,426.941437 1101.943848,429.370941   C1100.083740,448.211182 1104.777466,466.304504 1107.290771,484.723114   C1108.765259,495.529327 1112.176270,505.571594 1114.391479,516.025452   C1115.785645,522.604858 1116.165161,529.399231 1117.000000,536.548584  z"/>
        <path fill="#EC644B" opacity="1.000000" stroke="none" d=" M1263.637939,290.070679   C1268.335327,292.783569 1272.820923,295.528961 1277.088257,298.579620   C1294.286987,310.874969 1310.246582,324.415863 1320.961060,343.486816   C1312.935547,348.211578 1304.865845,352.593018 1296.131226,356.858765   C1284.498291,340.922089 1270.483398,328.343842 1254.242920,318.169617   C1252.633667,317.161438 1250.688232,316.689911 1248.898804,315.969299   C1251.228027,312.116852 1253.665283,308.324768 1255.858276,304.396240   C1258.457397,299.740021 1260.846069,294.966278 1263.637939,290.070679  z"/>
        <path fill="#EB5F2D" opacity="1.000000" stroke="none" d=" M1372.453491,328.903137   C1370.428955,319.670441 1366.845459,311.506714 1360.281006,304.743042   C1357.518555,301.896759 1354.783081,298.978790 1352.397095,295.820160   C1341.813354,281.809753 1327.040649,272.660156 1312.802002,263.356567   C1302.546265,256.655334 1290.255859,253.068039 1278.518433,248.044159   C1278.843628,242.798416 1279.523315,237.600311 1280.545044,232.181580   C1296.618042,239.494934 1312.351196,247.024078 1328.073730,254.575470   C1328.964111,255.003052 1329.903442,255.476028 1330.589844,256.159088   C1345.753906,271.250244 1360.577393,286.701538 1376.154053,301.352417   C1383.843872,308.585114 1385.505737,317.824036 1388.003540,327.436707   C1382.971802,328.210205 1377.937134,328.590271 1372.453491,328.903137  z"/>
        <path fill="#E95A0F" opacity="1.000000" stroke="none" d=" M801.776245,434.171234   C809.883911,426.289093 818.359863,418.914093 826.349487,411.045319   C832.907227,404.586792 839.230835,397.819641 845.015808,390.669556   C849.832336,384.716522 853.715393,378.008301 858.026917,371.260071   C863.765930,372.598389 869.489990,374.311188 875.607605,376.097595   C874.763000,380.280914 873.077637,384.316254 872.378540,388.515778   C870.856445,397.659515 863.790405,402.993195 858.177124,408.990936   C849.665588,418.085388 840.431702,426.625824 830.734436,434.446411   C824.121826,439.779327 816.194519,443.482239 808.511353,447.956757   C806.089722,443.487946 804.011902,438.976349 801.776245,434.171234  z"/>
        <path fill="#EB5E5B" opacity="1.000000" stroke="none" d=" M1248.533081,316.002075   C1250.688232,316.689911 1252.633667,317.161438 1254.242920,318.169617   C1270.483398,328.343842 1284.498291,340.922089 1295.774658,356.896698   C1288.608276,362.633118 1281.133423,368.215912 1273.212646,373.627930   C1272.053101,372.350494 1271.528320,371.043060 1270.597412,370.167511   C1257.732178,358.066254 1244.811035,346.024323 1231.903564,333.967896   C1236.643555,328.963470 1241.401245,323.975647 1246.106201,318.938446   C1246.909180,318.078857 1247.486084,317.008087 1248.533081,316.002075  z"/>
        <path fill="#EB5A57" opacity="1.000000" stroke="none" d=" M1216.358887,827.957825   C1212.027710,824.224792 1207.756226,820.578735 1204.032959,816.439514   C1195.012695,806.411743 1186.254761,796.147949 1177.368530,785.999207   C1176.502686,785.010498 1175.478271,784.160706 1174.216919,783.097290   C1180.699829,777.043091 1187.493286,771.137939 1194.588013,765.092773   C1207.845093,779.796570 1220.800903,794.640442 1233.902954,809.796631   C1228.255249,816.012817 1222.461548,821.916687 1216.358887,827.957825  z"/>
        <path fill="#EC6168" opacity="1.000000" stroke="none" d=" M1231.598145,334.101379   C1244.811035,346.024323 1257.732178,358.066254 1270.597412,370.167511   C1271.528320,371.043060 1272.053101,372.350494 1272.900024,373.775635   C1268.616943,378.054840 1264.200439,382.015533 1259.130737,385.866455   C1254.930542,382.815674 1251.618652,379.517517 1247.793213,376.999420   C1235.433228,368.863220 1224.900635,358.729828 1214.952515,347.906067   C1220.399292,343.348999 1225.845947,338.791931 1231.598145,334.101379  z"/>
        <path fill="#ED656E" opacity="1.000000" stroke="none" d=" M1214.597168,347.955200   C1224.900635,358.729828 1235.433228,368.863220 1247.793213,376.999420   C1251.618652,379.517517 1254.930542,382.815674 1258.784912,385.902649   C1255.613892,390.299927 1252.135376,394.551147 1248.352539,398.948242   C1241.567505,393.764435 1234.354492,389.090057 1228.823975,382.910004   C1223.877686,377.382996 1219.137451,374.266174 1211.514526,374.695251   C1208.898926,374.842529 1205.780762,371.907135 1203.447754,369.772705   C1200.421875,367.004120 1197.951172,363.628601 1195.097900,360.204956   C1201.383667,355.931824 1207.812744,351.968048 1214.597168,347.955200  z"/>
</svg>